<?xml version="1.0" encoding="utf-8"?>
<!-- Generator: Adobe Illustrator 25.0.1, SVG Export Plug-In . SVG Version: 6.00 Build 0)  -->
<svg version="1.0" id="katman_1" xmlns="http://www.w3.org/2000/svg" xmlns:xlink="http://www.w3.org/1999/xlink" x="0px" y="0px"
	 viewBox="0 0 560 400" style="enable-background:new 0 0 560 400;" xml:space="preserve">
<path d="M224.9,71.5l73.8,42.3c3.1,1.7,4.9,4.9,4.9,8.5v140c0,0.4-0.2,0.9-0.6,1.1l-80,45.4c-0.6,0.3-1.3,0.1-1.7-0.5
	c-0.1-0.2-0.2-0.4-0.2-0.6l0.1-234c0-1.3,1.1-2.4,2.4-2.4C224.1,71.2,224.5,71.3,224.9,71.5z M221.3,62.4c-1.8-1-3.9-0.4-4.9,1.4
	c-0.3,0.6-0.5,1.2-0.5,1.8l-0.4,245.2c0,1.8,0.9,3.4,2.5,4.2l85.7,49.2c1.8,1,3.9,0.4,4.9-1.4c0.3-0.6,0.5-1.2,0.5-1.8V119.8
	c0-4.3-2.4-8.4-6.1-10.6L221.3,62.4z M355.9,89.4v258.9c0,4.3-2.4,8.4-6.1,10.6l-34.3,19.5c-3.8,2.2-8.4,2.2-12.1,0l-93.1-53.8
	c-3.8-2.2-6.1-6.1-6.1-10.5V48.7c0-4.4,2.5-8.6,6.4-10.7l30.7-16.6c3.8-2,8.3-2,11.9,0.2l96.6,57.2C353.6,81.1,355.9,85,355.9,89.4
	L355.9,89.4z"/>
</svg>
